<svg width="23" height="23" viewBox="0 0 23 23" fill="none" xmlns="http://www.w3.org/2000/svg">
<path d="M6.9 18.4C5.635 18.4 4.6115 19.435 4.6115 20.7C4.6115 21.965 5.635 23 6.9 23C8.165 23 9.2 21.965 9.2 20.7C9.2 19.435 8.165 18.4 6.9 18.4ZM0 0V2.3H2.3L6.44 11.0285L4.8875 13.846C4.7035 14.168 4.6 14.5475 4.6 14.95C4.6 16.215 5.635 17.25 6.9 17.25H20.7V14.95H7.383C7.222 14.95 7.0955 14.8235 7.0955 14.6625L7.13 14.5245L8.165 12.65H16.7325C17.595 12.65 18.354 12.1785 18.745 11.4655L22.862 4.002C22.954 3.841 23 3.6455 23 3.45C23 2.8175 22.4825 2.3 21.85 2.3H4.8415L3.7605 0H0ZM18.4 18.4C17.135 18.4 16.1115 19.435 16.1115 20.7C16.1115 21.965 17.135 23 18.4 23C19.665 23 20.7 21.965 20.7 20.7C20.7 19.435 19.665 18.4 18.4 18.4Z" fill="white"/>
</svg>
